<mxfile host="app.diagrams.net" modified="2021-09-14T19:01:42.778Z" agent="5.0 (Macintosh; Intel Mac OS X 10_15_7) AppleWebKit/537.36 (KHTML, like Gecko) Chrome/92.0.4515.159 Safari/537.36" etag="YHR8NeftaXqo_73r5TYy" version="15.2.7" type="github">
  <diagram id="IlkQU9mQoc2-HQEd0ZJj" name="第 1 页">
    <mxGraphModel dx="946" dy="614" grid="1" gridSize="10" guides="1" tooltips="1" connect="1" arrows="1" fold="1" page="1" pageScale="1" pageWidth="827" pageHeight="1169" math="0" shadow="0">
      <root>
        <mxCell id="0" />
        <mxCell id="1" parent="0" />
        <mxCell id="wwMbGggkXexPY8Bj3Iom-29" value="" style="rounded=1;whiteSpace=wrap;html=1;" vertex="1" parent="1">
          <mxGeometry x="43" y="60" width="160" height="320" as="geometry" />
        </mxCell>
        <mxCell id="wwMbGggkXexPY8Bj3Iom-5" value="&lt;b&gt;req&lt;/b&gt;" style="text;html=1;strokeColor=none;fillColor=none;align=center;verticalAlign=middle;whiteSpace=wrap;rounded=0;" vertex="1" parent="1">
          <mxGeometry x="260" y="100" width="40" height="20" as="geometry" />
        </mxCell>
        <mxCell id="wwMbGggkXexPY8Bj3Iom-25" style="edgeStyle=orthogonalEdgeStyle;rounded=0;orthogonalLoop=1;jettySize=auto;html=1;entryX=1;entryY=0.5;entryDx=0;entryDy=0;" edge="1" parent="1" source="wwMbGggkXexPY8Bj3Iom-7" target="wwMbGggkXexPY8Bj3Iom-17">
          <mxGeometry relative="1" as="geometry">
            <Array as="points">
              <mxPoint x="360" y="190" />
              <mxPoint x="360" y="190" />
            </Array>
          </mxGeometry>
        </mxCell>
        <mxCell id="wwMbGggkXexPY8Bj3Iom-7" value="" style="ellipse;shape=cloud;whiteSpace=wrap;html=1;" vertex="1" parent="1">
          <mxGeometry x="414" y="50" width="190" height="320" as="geometry" />
        </mxCell>
        <mxCell id="wwMbGggkXexPY8Bj3Iom-8" value="&lt;b&gt;&lt;font style=&quot;font-size: 14px&quot;&gt;GraphQL服务&lt;/font&gt;&lt;/b&gt;" style="text;html=1;strokeColor=none;fillColor=none;align=center;verticalAlign=middle;whiteSpace=wrap;rounded=0;" vertex="1" parent="1">
          <mxGeometry x="449" y="160" width="120" height="20" as="geometry" />
        </mxCell>
        <mxCell id="wwMbGggkXexPY8Bj3Iom-13" value="&lt;b&gt;resp&lt;/b&gt;" style="text;html=1;strokeColor=none;fillColor=none;align=center;verticalAlign=middle;whiteSpace=wrap;rounded=0;" vertex="1" parent="1">
          <mxGeometry x="270" y="160" width="40" height="20" as="geometry" />
        </mxCell>
        <mxCell id="wwMbGggkXexPY8Bj3Iom-24" style="edgeStyle=orthogonalEdgeStyle;rounded=0;orthogonalLoop=1;jettySize=auto;html=1;entryX=0.253;entryY=0.216;entryDx=0;entryDy=0;entryPerimeter=0;" edge="1" parent="1" source="wwMbGggkXexPY8Bj3Iom-15" target="wwMbGggkXexPY8Bj3Iom-7">
          <mxGeometry relative="1" as="geometry" />
        </mxCell>
        <mxCell id="wwMbGggkXexPY8Bj3Iom-15" value="请求" style="rounded=0;whiteSpace=wrap;html=1;" vertex="1" parent="1">
          <mxGeometry x="70" y="100" width="120" height="40" as="geometry" />
        </mxCell>
        <mxCell id="wwMbGggkXexPY8Bj3Iom-19" style="edgeStyle=orthogonalEdgeStyle;rounded=0;orthogonalLoop=1;jettySize=auto;html=1;entryX=0.5;entryY=0;entryDx=0;entryDy=0;" edge="1" parent="1" source="wwMbGggkXexPY8Bj3Iom-17" target="wwMbGggkXexPY8Bj3Iom-18">
          <mxGeometry relative="1" as="geometry" />
        </mxCell>
        <mxCell id="wwMbGggkXexPY8Bj3Iom-17" value="解析" style="rounded=0;whiteSpace=wrap;html=1;" vertex="1" parent="1">
          <mxGeometry x="70" y="170" width="120" height="40" as="geometry" />
        </mxCell>
        <mxCell id="wwMbGggkXexPY8Bj3Iom-23" style="edgeStyle=orthogonalEdgeStyle;rounded=0;orthogonalLoop=1;jettySize=auto;html=1;entryX=0.1;entryY=0.659;entryDx=0;entryDy=0;entryPerimeter=0;" edge="1" parent="1" source="wwMbGggkXexPY8Bj3Iom-18" target="wwMbGggkXexPY8Bj3Iom-7">
          <mxGeometry relative="1" as="geometry">
            <mxPoint x="360" y="260" as="targetPoint" />
          </mxGeometry>
        </mxCell>
        <mxCell id="wwMbGggkXexPY8Bj3Iom-18" value="请求" style="rounded=0;whiteSpace=wrap;html=1;" vertex="1" parent="1">
          <mxGeometry x="70" y="240" width="120" height="40" as="geometry" />
        </mxCell>
        <mxCell id="wwMbGggkXexPY8Bj3Iom-21" value="合并+后置处理" style="rounded=0;whiteSpace=wrap;html=1;" vertex="1" parent="1">
          <mxGeometry x="70" y="320" width="120" height="40" as="geometry" />
        </mxCell>
        <mxCell id="wwMbGggkXexPY8Bj3Iom-26" value="&lt;b&gt;req&lt;/b&gt;" style="text;html=1;strokeColor=none;fillColor=none;align=center;verticalAlign=middle;whiteSpace=wrap;rounded=0;" vertex="1" parent="1">
          <mxGeometry x="270" y="240" width="40" height="20" as="geometry" />
        </mxCell>
        <mxCell id="wwMbGggkXexPY8Bj3Iom-27" style="edgeStyle=orthogonalEdgeStyle;rounded=0;orthogonalLoop=1;jettySize=auto;html=1;entryX=1;entryY=0.5;entryDx=0;entryDy=0;exitX=0.368;exitY=0.906;exitDx=0;exitDy=0;exitPerimeter=0;" edge="1" parent="1" source="wwMbGggkXexPY8Bj3Iom-7">
          <mxGeometry relative="1" as="geometry">
            <mxPoint x="414.7451095433239" y="339.5" as="sourcePoint" />
            <mxPoint x="190" y="339.5" as="targetPoint" />
            <Array as="points" />
          </mxGeometry>
        </mxCell>
        <mxCell id="wwMbGggkXexPY8Bj3Iom-28" value="&lt;b&gt;resp&lt;/b&gt;" style="text;html=1;strokeColor=none;fillColor=none;align=center;verticalAlign=middle;whiteSpace=wrap;rounded=0;" vertex="1" parent="1">
          <mxGeometry x="280" y="320" width="40" height="20" as="geometry" />
        </mxCell>
        <mxCell id="wwMbGggkXexPY8Bj3Iom-30" value="&lt;b&gt;&lt;font style=&quot;font-size: 14px&quot;&gt;client&lt;/font&gt;&lt;/b&gt;" style="text;html=1;strokeColor=none;fillColor=none;align=center;verticalAlign=middle;whiteSpace=wrap;rounded=0;" vertex="1" parent="1">
          <mxGeometry x="50" y="60" width="40" height="20" as="geometry" />
        </mxCell>
      </root>
    </mxGraphModel>
  </diagram>
</mxfile>
